<svg width="20" height="20" viewBox="0 0 20 20" fill="none" xmlns="http://www.w3.org/2000/svg">
<g clip-path="url(#clip0_73_548)">
<path d="M10 12.5V10M10 10V7.5M10 10H7.5M10 10H12.5M10.0001 17.5C8.6375 17.5 7.35978 17.1366 6.25854 16.5015C6.14975 16.4387 6.09528 16.4073 6.04411 16.3932C5.99648 16.3801 5.95396 16.3756 5.90466 16.379C5.85211 16.3826 5.79775 16.4007 5.68966 16.4367L3.76506 17.0782L3.76354 17.0789C3.35743 17.2143 3.154 17.2822 3.0188 17.2339C2.901 17.1919 2.80816 17.0989 2.76615 16.9812C2.71798 16.846 2.78557 16.6432 2.92074 16.2377L2.92155 16.2352L3.56223 14.3132L3.56376 14.3092C3.59947 14.202 3.61755 14.1478 3.62112 14.0955C3.6245 14.0462 3.62001 14.0033 3.60684 13.9558C3.59288 13.9053 3.56207 13.8518 3.50095 13.7458L3.49849 13.7416C2.86337 12.6403 2.5 11.3626 2.5 10C2.5 5.85787 5.85787 2.5 10 2.5C14.1422 2.5 17.5 5.85787 17.5 10C17.5 14.1422 14.1422 17.5 10.0001 17.5Z" stroke="black" stroke-width="2" stroke-linecap="round" stroke-linejoin="round"/>
</g>
<defs>
<clipPath id="clip0_73_548">
<rect width="20" height="20" fill="white"/>
</clipPath>
</defs>
</svg>
