<svg width="20" height="20" viewBox="0 0 20 20" fill="none" xmlns="http://www.w3.org/2000/svg">
<g clip-path="url(#clip0_74_522)">
<path d="M9.99992 12.4999L12.4999 9.99992M12.4999 9.99992L9.99992 7.49992M12.4999 9.99992H3.33325M7.49992 6.04041V6.00008C7.49992 5.06666 7.49992 4.5996 7.68157 4.24308C7.84136 3.92948 8.09615 3.6747 8.40975 3.51491C8.76627 3.33325 9.23333 3.33325 10.1667 3.33325H14.0001C14.9335 3.33325 15.3996 3.33325 15.7561 3.51491C16.0697 3.6747 16.3253 3.92948 16.4851 4.24308C16.6666 4.59925 16.6666 5.06575 16.6666 5.99734V14.0029C16.6666 14.9345 16.6666 15.4003 16.4851 15.7565C16.3253 16.0701 16.0697 16.3253 15.7561 16.4851C15.3999 16.6666 14.9341 16.6666 14.0025 16.6666H10.164C9.23241 16.6666 8.76592 16.6666 8.40975 16.4851C8.09615 16.3253 7.84136 16.0698 7.68157 15.7562C7.49992 15.3997 7.49992 14.9333 7.49992 13.9999V13.9583" stroke="black" stroke-width="2" stroke-linecap="round" stroke-linejoin="round"/>
</g>
<defs>
<clipPath id="clip0_74_522">
<rect width="20" height="20" fill="white"/>
</clipPath>
</defs>
</svg>
