<svg width="20" height="20" viewBox="0 0 20 20" fill="none" xmlns="http://www.w3.org/2000/svg">
<g clip-path="url(#clip0_276_1164)">
    <g clip-path="url(#clip1_276_1164)">
        <path d="M15.5558 4.03027L14.4259 2.33593C14.1525 1.92455 13.7814 1.58726 13.3459 1.35416C12.9103 1.12105 12.4239 0.999382 11.9299 1H8.07048C7.57649 0.999382 7.09002 1.12105 6.65449 1.35416C6.21895 1.58726 5.84789 1.92455 5.5744 2.33593L4.44472 4.03027C3.22297 4.16851 2.09479 4.75142 1.27516 5.66792C0.45552 6.58441 0.00172472 7.77043 0.000244141 8.99998V13.9999C0.00179483 15.3255 0.52907 16.5964 1.4664 17.5337C2.40374 18.4711 3.67459 18.9983 5.00019 18.9999H15.0002C16.3258 18.9983 17.5966 18.4711 18.5339 17.5337C19.4713 16.5964 19.9986 15.3255 20.0001 13.9999V8.99998C19.9986 7.77046 19.5449 6.58447 18.7253 5.66797C17.9057 4.75148 16.7775 4.16855 15.5558 4.03027ZM18.0001 13.9999C17.9993 14.7953 17.6829 15.5579 17.1205 16.1203C16.5581 16.6827 15.7955 16.999 15.0002 16.9999H5.00019C4.20481 16.999 3.44225 16.6827 2.87984 16.1203C2.31742 15.5579 2.00107 14.7953 2.0002 13.9999V8.99998C2.00107 8.2046 2.31742 7.44204 2.87984 6.87963C3.44225 6.31721 4.20481 6.00086 5.00019 5.99999C5.16482 6.00002 5.32691 5.95939 5.47206 5.8817C5.61721 5.80402 5.74092 5.69168 5.83221 5.55468L7.23845 3.44532C7.32959 3.30817 7.45327 3.19572 7.59846 3.11801C7.74364 3.04031 7.90581 2.99977 8.07048 3.00001H11.9299C12.0945 2.99977 12.2567 3.04031 12.4019 3.11801C12.5471 3.19572 12.6708 3.30817 12.7619 3.44532L14.1681 5.55468C14.2594 5.69168 14.3831 5.80402 14.5283 5.8817C14.6734 5.95939 14.8355 6.00002 15.0002 5.99999C15.7955 6.00086 16.5581 6.31721 17.1205 6.87963C17.6829 7.44204 17.9993 8.2046 18.0001 8.99998V13.9999ZM10.0002 6.99997C9.20904 6.99996 8.43568 7.23455 7.77787 7.67407C7.12007 8.1136 6.60737 8.73831 6.30461 9.46922C6.00185 10.2001 5.92264 11.0044 6.07698 11.7803C6.23132 12.5563 6.61228 13.269 7.17169 13.8284C7.73111 14.3878 8.44385 14.7688 9.21978 14.9231C9.99571 15.0775 10.8 14.9983 11.5309 14.6955C12.2618 14.3927 12.8865 13.88 13.326 13.2222C13.7656 12.5644 14.0001 11.7911 14.0001 10.9999C13.999 9.93942 13.5772 8.92267 12.8273 8.17278C12.0774 7.42289 11.0607 7.0011 10.0002 6.99997ZM10.0002 12.9999C9.60461 12.9999 9.21793 12.8826 8.88903 12.6629C8.56013 12.4431 8.30379 12.1308 8.15241 11.7653C8.00104 11.3998 7.96143 10.9977 8.0386 10.6098C8.11577 10.2218 8.30625 9.86542 8.58596 9.58572C8.86566 9.30601 9.22203 9.11553 9.60999 9.03836C9.99796 8.96119 10.4001 9.00079 10.7655 9.15217C11.131 9.30355 11.4434 9.55989 11.6631 9.88879C11.8829 10.2177 12.0002 10.6044 12.0002 10.9999C11.9996 11.5302 11.7887 12.0385 11.4137 12.4135C11.0388 12.7884 10.5304 12.9993 10.0002 12.9999ZM17.0001 7.99995C17.0001 8.19773 16.9415 8.39106 16.8316 8.55551C16.7217 8.71995 16.5655 8.84812 16.3828 8.92381C16.2001 8.9995 15.999 9.0193 15.8051 8.98071C15.6111 8.94213 15.4329 8.84689 15.2931 8.70704C15.1532 8.56719 15.058 8.38901 15.0194 8.19504C14.9808 8.00106 15.0006 7.8 15.0763 7.61727C15.152 7.43455 15.2801 7.27838 15.4446 7.1685C15.609 7.05862 15.8024 6.99997 16.0001 6.99997C16.2654 6.99997 16.5197 7.10532 16.7072 7.29286C16.8948 7.48039 17.0001 7.73474 17.0001 7.99995Z" fill="black"/>
    </g>
</g>
<defs>
    <clipPath id="clip0_276_1164">
        <rect width="20" height="20" fill="white"/>
    </clipPath>
    <clipPath id="clip1_276_1164">
        <rect width="20" height="20" fill="white"/>
    </clipPath>
</defs>
</svg>
