<svg width="20" height="20" viewBox="0 0 20 20" fill="none" xmlns="http://www.w3.org/2000/svg">
<g clip-path="url(#clip0_78_810)">
<path d="M2.50004 14.1667C2.5 14.1128 2.5 14.0573 2.5 14.0001V6.00009C2.5 5.06666 2.5 4.5996 2.68166 4.24309C2.84144 3.92948 3.09623 3.67469 3.40983 3.51491C3.76635 3.33325 4.23341 3.33325 5.16683 3.33325H14.8335C15.7669 3.33325 16.2334 3.33325 16.5899 3.51491C16.9035 3.67469 17.1587 3.92948 17.3185 4.24309C17.5 4.59925 17.5 5.06574 17.5 5.99734V14.0025C17.5 14.4067 17.5 14.7232 17.4852 14.9811M2.50004 14.1667C2.50068 14.9903 2.51114 15.4214 2.68166 15.7561C2.84144 16.0697 3.09623 16.3253 3.40983 16.4851C3.766 16.6666 4.23249 16.6666 5.16409 16.6666H14.8363C15.7679 16.6666 16.2337 16.6666 16.5899 16.4851C16.9035 16.3253 17.1587 16.0697 17.3185 15.7561C17.4212 15.5544 17.4658 15.3177 17.4852 14.9811M2.50004 14.1667L6.47332 9.53117L6.47449 9.52992C6.82689 9.11875 7.00338 8.91283 7.21272 8.83858C7.39662 8.77342 7.59738 8.77492 7.78036 8.84267C7.98887 8.91992 8.16255 9.12817 8.50992 9.545L10.7359 12.2162C11.0575 12.6021 11.2192 12.7961 11.4155 12.874C11.5887 12.9427 11.7797 12.9504 11.9584 12.8977C12.1618 12.8377 12.3409 12.6586 12.699 12.3005L13.1132 11.8863C13.4777 11.5218 13.6601 11.3396 13.8664 11.28C14.0476 11.2278 14.2413 11.239 14.4157 11.3109C14.6142 11.3929 14.7752 11.5936 15.0972 11.9962L17.4852 14.9811M17.4852 14.9811L17.5 14.9996M12.5 8.33325C12.0397 8.33325 11.6667 7.96015 11.6667 7.49992C11.6667 7.03969 12.0397 6.66659 12.5 6.66659C12.9602 6.66659 13.3333 7.03969 13.3333 7.49992C13.3333 7.96015 12.9602 8.33325 12.5 8.33325Z" stroke="black" stroke-width="2" stroke-linecap="round" stroke-linejoin="round"/>
</g>
<defs>
<clipPath id="clip0_78_810">
<rect width="20" height="20" fill="white"/>
</clipPath>
</defs>
</svg>
