<svg width="20" height="20" viewBox="0 0 20 20" fill="none" xmlns="http://www.w3.org/2000/svg">
<g clip-path="url(#clip0_60_520)">
<g clip-path="url(#clip1_60_520)">
<path d="M8.4807 11.5911L13.211 6.86077M18.0499 3.97395L14.057 16.9508C13.6992 18.1137 13.5201 18.6955 13.2115 18.8884C12.9438 19.0556 12.6123 19.0836 12.3208 18.9625C11.9846 18.8231 11.7118 18.2783 11.1674 17.1897L8.63843 12.1316C8.55205 11.9588 8.50881 11.8729 8.45112 11.798C8.39987 11.7316 8.34082 11.6717 8.27445 11.6205C8.20124 11.5641 8.11667 11.5218 7.95162 11.4394L2.88191 8.90444C1.79327 8.36017 1.2489 8.08774 1.10941 7.75156C0.988431 7.46001 1.01602 7.12826 1.18328 6.86056C1.37615 6.55189 1.95785 6.37257 3.12118 6.01462L16.098 2.02175C17.0126 1.74035 17.4701 1.59976 17.7789 1.71317C18.048 1.81195 18.2601 2.02387 18.3589 2.29295C18.4722 2.60171 18.3316 3.05894 18.0505 3.9726L18.0499 3.97395Z" stroke="black" stroke-width="2" stroke-linecap="round" stroke-linejoin="round"/>
</g>
</g>
<defs>
<clipPath id="clip0_60_520">
<rect width="20" height="20" fill="white"/>
</clipPath>
<clipPath id="clip1_60_520">
<rect width="20" height="20" fill="white"/>
</clipPath>
</defs>
</svg>
