<svg width="20" height="20" viewBox="0 0 20 20" fill="none" xmlns="http://www.w3.org/2000/svg">
<path d="M16.9582 7.43577L16.6531 7.266C16.6057 7.23963 16.5824 7.22641 16.5595 7.2127C16.3319 7.07637 16.1402 6.88803 16.0002 6.66269C15.9861 6.64001 15.9728 6.61624 15.9457 6.56925C15.9186 6.52231 15.9048 6.49852 15.8922 6.47498C15.7667 6.24055 15.6987 5.97929 15.6947 5.71338C15.6942 5.68665 15.6943 5.65934 15.6952 5.60503L15.7012 5.25065C15.7107 4.68354 15.7156 4.39911 15.6358 4.14385C15.5651 3.91711 15.4467 3.70827 15.2885 3.53104C15.1097 3.33071 14.8622 3.18778 14.3668 2.9023L13.9553 2.66516C13.4613 2.38048 13.2142 2.23809 12.9519 2.18381C12.7199 2.13578 12.4804 2.13801 12.2492 2.18991C11.9882 2.24849 11.7442 2.39459 11.2566 2.68663L11.2537 2.68796L10.9589 2.86451C10.9123 2.89242 10.8887 2.90649 10.8653 2.91948C10.6334 3.04841 10.3746 3.11971 10.1093 3.12822C10.0827 3.12908 10.0554 3.12908 10.0011 3.12908C9.94708 3.12908 9.91867 3.12908 9.892 3.12822C9.62625 3.11967 9.36683 3.04799 9.13458 2.91853C9.11117 2.90548 9.088 2.8913 9.04133 2.86325L8.74458 2.68511C8.25351 2.3903 8.00762 2.24267 7.74522 2.18381C7.51308 2.13172 7.27281 2.13028 7.03992 2.17892C6.77697 2.23385 6.52981 2.3773 6.03548 2.66419L6.03328 2.66516L5.6269 2.90103L5.6224 2.90378C5.13253 3.1881 4.88701 3.3306 4.70975 3.53011C4.55245 3.70716 4.43487 3.91567 4.3645 4.14181C4.28495 4.39742 4.28919 4.68246 4.29877 5.25225L4.30473 5.60613C4.30563 5.65971 4.3072 5.68635 4.30681 5.71271C4.30286 5.97916 4.23405 6.24095 4.10811 6.4758C4.09566 6.49902 4.08225 6.52225 4.05545 6.56864C4.02863 6.61507 4.01564 6.63816 4.00174 6.66056C3.86113 6.8871 3.66845 7.07655 3.43944 7.2131C3.41679 7.22661 3.39291 7.2396 3.34601 7.26559L3.04471 7.43256C2.5434 7.71037 2.29281 7.8494 2.11047 8.04724C1.94915 8.22226 1.82729 8.42983 1.75291 8.656C1.66882 8.91158 1.66889 9.19816 1.6702 9.77125L1.67126 10.2397C1.67255 10.809 1.67432 11.0935 1.7586 11.3473C1.83316 11.5719 1.95412 11.7783 2.11453 11.9522C2.29585 12.1489 2.54395 12.2871 3.04145 12.5638L3.34006 12.73C3.39089 12.7582 3.41646 12.7722 3.44097 12.787C3.6679 12.9236 3.85907 13.1125 3.99848 13.3377C4.01354 13.3621 4.028 13.3873 4.05691 13.4379C4.08546 13.4877 4.10007 13.5127 4.11328 13.5377C4.23551 13.7691 4.30095 14.0262 4.30541 14.2879C4.30589 14.3162 4.30548 14.3447 4.30451 14.4022L4.29877 14.7418C4.28912 15.3136 4.28491 15.5997 4.36493 15.8561C4.43572 16.0828 4.55403 16.2917 4.71219 16.4689C4.89096 16.6692 5.13879 16.8121 5.63422 17.0976L6.04565 17.3346C6.53969 17.6193 6.78662 17.7615 7.04891 17.8158C7.28095 17.8638 7.52053 17.862 7.75174 17.8101C8.01306 17.7514 8.2579 17.6048 8.747 17.3119L9.04183 17.1354C9.0885 17.1074 9.11216 17.0934 9.1355 17.0804C9.36741 16.9515 9.626 16.8798 9.89125 16.8713C9.91792 16.8705 9.94516 16.8705 9.9995 16.8705C10.054 16.8705 10.0812 16.8705 10.1079 16.8713C10.3737 16.8799 10.6339 16.9518 10.8662 17.0812C10.8866 17.0927 10.9071 17.105 10.943 17.1266L11.2565 17.3147C11.7476 17.6096 11.993 17.7567 12.2554 17.8157C12.4875 17.8677 12.728 17.8698 12.9609 17.8212C13.2237 17.7663 13.4714 17.6226 13.9655 17.3358L14.378 17.0964C14.8682 16.8119 15.1139 16.6692 15.2912 16.4697C15.4486 16.2927 15.5663 16.0842 15.6367 15.8581C15.7157 15.6043 15.7109 15.3215 15.7014 14.7599L15.6952 14.3937C15.6943 14.3401 15.6942 14.3134 15.6947 14.2871C15.6986 14.0206 15.7662 13.7587 15.8922 13.5238C15.9047 13.5006 15.9182 13.4772 15.9448 13.4309C15.9717 13.3846 15.9856 13.3614 15.9995 13.339C16.1401 13.1124 16.3329 12.9228 16.562 12.7862C16.5843 12.7729 16.6074 12.7602 16.6532 12.7348L16.6547 12.7341L16.956 12.5671C17.4573 12.2893 17.7084 12.1501 17.8907 11.9522C18.0521 11.7772 18.1737 11.5699 18.2482 11.3438C18.3317 11.0897 18.3311 10.8048 18.3298 10.2384L18.3287 9.75991C18.3274 9.19058 18.3267 8.90616 18.2425 8.65233C18.1679 8.42775 18.0462 8.22134 17.8858 8.04737C17.7047 7.85092 17.4562 7.71271 16.9597 7.43648L16.9582 7.43577Z" stroke="black" stroke-width="2" stroke-linecap="round" stroke-linejoin="round"/>
<path d="M6.66699 10.0001C6.66699 11.841 8.15938 13.3334 10.0003 13.3334C11.8413 13.3334 13.3336 11.841 13.3336 10.0001C13.3336 8.15913 11.8413 6.66675 10.0003 6.66675C8.15938 6.66675 6.66699 8.15913 6.66699 10.0001Z" stroke="black" stroke-width="2" stroke-linecap="round" stroke-linejoin="round"/>
</svg>
